<svg width="80" height="80" viewBox="0 0 80 80" fill="none" xmlns="http://www.w3.org/2000/svg">
<path d="M50 24.0528H50.0333M41.6667 63.19H20C17.3478 63.19 14.8043 62.2385 12.9289 60.5447C11.0536 58.851 10 56.5537 10 54.1584V18.0317C10 15.6363 11.0536 13.3391 12.9289 11.6453C14.8043 9.95155 17.3478 9 20 9H60C62.6522 9 65.1957 9.95155 67.0711 11.6453C68.9464 13.3391 70 15.6363 70 18.0317V37.6003" stroke="black" stroke-width="3" stroke-linecap="round" stroke-linejoin="round"/>
<path d="M10 48.1394L26.6667 33.0866C29.76 30.3982 33.5733 30.3982 36.6667 33.0866L50 45.1289" stroke="black" stroke-width="3" stroke-linecap="round" stroke-linejoin="round"/>
<path d="M46.6641 42.1147L49.9974 39.1041C52.2307 37.1653 54.8307 36.6234 57.2707 37.4784M53.3307 57.1675H73.3307M63.3307 48.1358V66.1991" stroke="black" stroke-width="3" stroke-linecap="round" stroke-linejoin="round"/>
</svg>
