<svg width="12" height="8" viewBox="0 0 12 8" fill="none" xmlns="http://www.w3.org/2000/svg">
<path d="M11.7137 2.54392L6.71372 7.54392C6.62076 7.63765 6.51016 7.71205 6.3883 7.76282C6.26644 7.81358 6.13573 7.83972 6.00372 7.83972C5.87171 7.83972 5.741 7.81358 5.61914 7.76282C5.49728 7.71205 5.38668 7.63765 5.29372 7.54392L0.293722 2.54392C0.199994 2.45096 0.125598 2.34036 0.0748291 2.2185C0.0240602 2.09664 -0.0020771 1.96594 -0.0020771 1.83392C-0.0020771 1.70191 0.0240602 1.57121 0.0748291 1.44935C0.125598 1.32749 0.199994 1.21689 0.293722 1.12392C0.386685 1.03019 0.497285 0.955801 0.619144 0.905032C0.741004 0.854263 0.87171 0.828125 1.00372 0.828125C1.13573 0.828125 1.26644 0.854263 1.3883 0.905032C1.51016 0.955801 1.62076 1.03019 1.71372 1.12392L6.00372 5.42392L10.2937 1.12392C10.482 0.93562 10.7374 0.829832 11.0037 0.829832C11.1356 0.829832 11.2661 0.855803 11.388 0.906263C11.5098 0.956724 11.6205 1.03068 11.7137 1.12392C11.902 1.31223 12.0078 1.56762 12.0078 1.83392C12.0078 1.96578 11.9818 2.09635 11.9314 2.21817C11.8809 2.34 11.807 2.45068 11.7137 2.54392Z" fill="#362C6A"/>
</svg>
