<svg width="12" height="7" viewBox="0 0 12 7" fill="none" xmlns="http://www.w3.org/2000/svg">
<path d="M11.9309 6.39038C11.8801 6.51223 11.8057 6.62284 11.712 6.7158C11.6191 6.80953 11.5085 6.88392 11.3866 6.93469C11.2647 6.98546 11.134 7.0116 11.002 7.0116C10.87 7.0116 10.7393 6.98546 10.6174 6.93469C10.4956 6.88392 10.385 6.80953 10.292 6.7158L6.00201 2.4158L1.71201 6.7158C1.61905 6.80953 1.50845 6.88392 1.38659 6.93469C1.26473 6.98546 1.13403 7.0116 1.00201 7.0116C0.870003 7.0116 0.739297 6.98546 0.617437 6.93469C0.495578 6.88392 0.384978 6.80953 0.292015 6.7158C0.198287 6.62284 0.123891 6.51223 0.073122 6.39038C0.0223532 6.26852 -0.00378418 6.13781 -0.00378418 6.0058C-0.00378418 5.87379 0.0223532 5.74308 0.073122 5.62122C0.123891 5.49936 0.198287 5.38876 0.292015 5.2958L5.29201 0.295798C5.38498 0.20207 5.49558 0.127676 5.61744 0.0769069C5.7393 0.0261382 5.87 0 6.00201 0C6.13403 0 6.26473 0.0261382 6.38659 0.0769069C6.50845 0.127676 6.61905 0.20207 6.71201 0.295798L11.712 5.2958C11.8057 5.38876 11.8801 5.49936 11.9309 5.62122C11.9817 5.74308 12.0078 5.87379 12.0078 6.0058C12.0078 6.13781 11.9817 6.26852 11.9309 6.39038Z" fill="#362C6A"/>
</svg>
