<svg width="17" height="16" viewBox="0 0 17 16" fill="none" xmlns="http://www.w3.org/2000/svg">
<g clip-path="url(#clip0_3526_20892)">
<path d="M15.0336 13.8L13.7201 12.5638M8.13766 13.1819C8.957 13.1819 9.76833 13.03 10.5253 12.7349C11.2823 12.4398 11.9701 12.0073 12.5495 11.462C13.1288 10.9167 13.5884 10.2694 13.9019 9.5569C14.2155 8.84445 14.3769 8.08086 14.3769 7.30971C14.3769 6.53856 14.2155 5.77496 13.9019 5.06251C13.5884 4.35006 13.1288 3.70271 12.5495 3.15743C11.9701 2.61214 11.2823 2.1796 10.5253 1.8845C9.76833 1.58939 8.957 1.4375 8.13766 1.4375C6.48291 1.4375 4.89594 2.05618 3.72586 3.15743C2.55578 4.25868 1.89844 5.7523 1.89844 7.30971C1.89844 8.86711 2.55578 10.3607 3.72586 11.462C4.89594 12.5632 6.48291 13.1819 8.13766 13.1819V13.1819Z" stroke="white" stroke-width="1.05198" stroke-linecap="round" stroke-linejoin="round"/>
</g>
<defs>
<clipPath id="clip0_3526_20892">
<rect width="15.7622" height="14.835" fill="white" transform="translate(0.585938 0.203125)"/>
</clipPath>
</defs>
</svg>
